<svg width="21" height="29" viewBox="0 0 21 29" fill="none" xmlns="http://www.w3.org/2000/svg">
<path d="M20.7812 28.4453C20.8906 28.3906 20.9453 28.2266 20.9453 28.0625C20.9453 28.0078 20.9453 27.8984 20.8906 27.8438L14 16.5234C13.8359 16.6875 13.5625 16.9609 13.2891 17.0156L20.1797 28.3359C20.2344 28.4453 20.3984 28.5 20.5078 28.5C20.6172 28.5 20.7266 28.5 20.7812 28.4453ZM7.76562 17.7266L6.01562 22.5938L7.98438 27.4609C8.36719 28.3359 9.35156 28.7734 10.2812 28.3906C11.1562 28.0078 11.5938 27.0234 11.2109 26.0938L7.76562 17.7266ZM5.25 5.3125C6.5625 5.3125 7.65625 4.27344 7.65625 2.90625C7.65625 1.59375 6.5625 0.5 5.25 0.5C3.88281 0.5 2.84375 1.59375 2.84375 2.90625C2.84375 4.27344 3.88281 5.3125 5.25 5.3125ZM13.6719 14.6094L7.10938 6.29688C6.89062 5.96875 6.50781 5.80469 6.125 5.80469V5.75H4.375V5.80469C3.9375 5.80469 3.55469 5.96875 3.33594 6.29688L0 10.5625V15.8125C0 16.5234 0.601562 17.1797 1.3125 17.125C2.02344 17.125 2.625 16.5781 2.625 15.8125V11.4922L3.5 10.3438V18.0547L0.492188 26.2031C0.164062 27.0781 0.65625 28.1172 1.58594 28.4453C2.46094 28.7734 3.5 28.2812 3.82812 27.3516L7.4375 17.4531V11.6016L5.6875 9.41406L5.63281 9.30469C5.63281 9.14062 5.74219 9.08594 5.85156 9.08594C5.90625 9.08594 6.01562 9.08594 6.01562 9.14062L11.6484 16.1953C12.1406 16.8516 12.9609 16.8516 13.4531 16.4141C14.0547 15.9766 14.1641 15.1562 13.6719 14.6094Z" fill="#2E2509"/>
</svg>
