<svg width="29" height="29" viewBox="0 0 29 29" fill="none" xmlns="http://www.w3.org/2000/svg">
<path d="M13.1953 7.66406L9.42188 1.375C9.14844 0.882812 8.49219 0.5 7.94531 0.5H1.875C1.16406 0.5 0.726562 1.32031 1.10938 1.92188L7.23438 10.6172C8.82031 9.08594 10.8984 8.04688 13.1953 7.66406ZM28.0703 0.5H22C21.3984 0.5 20.8516 0.828125 20.5234 1.375L16.75 7.66406C19.0469 8.04688 21.125 9.08594 22.7109 10.6172L28.8359 1.92188C29.2188 1.32031 28.7812 0.5 28.0703 0.5ZM15 9.25C9.64062 9.25 5.375 13.5703 5.375 18.875C5.375 24.2344 9.64062 28.5 15 28.5C20.3047 28.5 24.625 24.2344 24.625 18.875C24.625 13.5703 20.3047 9.25 15 9.25ZM20.0312 17.8906L17.9531 19.9141L18.4453 22.7578C18.5547 23.25 18.0078 23.6328 17.5156 23.4141L15 22.0469L12.4297 23.4141C11.9375 23.6328 11.3906 23.25 11.5 22.7578L11.9922 19.9141L9.91406 17.8906C9.53125 17.5078 9.75 16.9062 10.2422 16.7969L13.1406 16.4141L14.3984 13.7891C14.5078 13.5703 14.7266 13.4609 14.9453 13.4609C15.2188 13.4609 15.4375 13.5703 15.5469 13.7891L16.8047 16.4141L19.7031 16.7969C20.1953 16.9062 20.4141 17.5078 20.0312 17.8906Z" fill="#2E2509"/>
</svg>
