<svg width="35" height="29" viewBox="0 0 35 29" fill="none" xmlns="http://www.w3.org/2000/svg">
<path d="M0 12.75V27.625C0 28.1172 0.382812 28.5 0.875 28.5H5.25V11H1.75C0.765625 11 0 11.8203 0 12.75ZM19.6875 10.125H18.375V7.9375C18.375 7.71875 18.1562 7.5 17.9375 7.5H17.0625C16.7891 7.5 16.625 7.71875 16.625 7.9375V11.4375C16.625 11.7109 16.7891 11.875 17.0625 11.875H19.6875C19.9062 11.875 20.125 11.7109 20.125 11.4375V10.5625C20.125 10.3438 19.9062 10.125 19.6875 10.125ZM27.1797 6.67969L18.4297 0.828125C18.2109 0.664062 17.7734 0.5 17.5 0.5C17.1719 0.5 16.7344 0.664062 16.5156 0.828125L7.76562 6.67969C7.32812 6.95312 7 7.60938 7 8.10156V28.5H14V20.625C14 20.1875 14.3828 19.75 14.875 19.75H20.125C20.5625 19.75 21 20.1875 21 20.625V28.5H28V8.10156C28 7.5 27.6719 6.95312 27.1797 6.67969ZM17.5 14.5C15.0391 14.5 13.125 12.5859 13.125 10.125C13.125 7.71875 15.0391 5.75 17.5 5.75C19.9062 5.75 21.875 7.71875 21.875 10.125C21.875 12.5859 19.9062 14.5 17.5 14.5ZM33.25 11H29.75V28.5H34.125C34.5625 28.5 35 28.1172 35 27.625V12.75C35 11.8203 34.1797 11 33.25 11Z" fill="#2E2509"/>
</svg>
